<svg class="illustration" width="1155" height="700" viewBox="0 0 1155 700" fill="none" xmlns="http://www.w3.org/2000/svg">
<path fill-rule="evenodd" clip-rule="evenodd" d="M555.372 421.151C555.256 438.035 555.155 453.752 555.07 467.667C555.025 468.392 555 469.182 555 470.029C554.998 481.802 559.736 504.673 579.434 518.268C600.549 532.84 682.247 579.713 721.5 601.977C724.27 603.548 726.968 604.277 729.453 604.383C751.033 607.85 762.161 595.637 762.161 583.041V222.772C762.161 200.103 757 191.98 744 184.477C721.763 171.643 691.775 154.137 664.518 138.226C628.73 117.335 597.65 99.1913 595 97.977C585.86 93.7883 570.339 96.5602 563.459 103.422C561.218 105.562 559.601 108.78 559.131 113.47C558.991 114.866 558.85 117.826 558.709 122.142C557.416 161.633 556.105 314.61 555.372 421.151Z" fill="#ffffff"/>
<path opacity="0.4" d="M745.919 230.868V583.041C745.919 594.854 730.504 601.208 725.031 603.464L725 603.477C749.5 609.477 762.161 596.477 762.161 583.041V222.772C762.161 200.103 757 191.98 744 184.477C692.566 154.791 599.668 100.116 595 97.977C583 92.4776 560 98.9766 560 110.977C566.5 97.4766 579.08 99.7318 583.495 101.332C628.161 127.644 720.337 181.887 731.707 188.364C743.077 194.84 745.919 219.398 745.919 230.868Z" fill="#7D8CA6"/>
<path opacity="0.2" d="M579.434 518.269C558.319 503.696 554.394 478.464 555.07 467.669C555.747 356.35 557.507 129.663 559.131 113.471C559.792 106.883 562.717 103.198 566.455 101.328C571.903 98.6012 577.404 97.7407 583.495 101.328C628.161 127.639 720.337 181.882 731.707 188.359C749 198.21 745.919 219.394 745.919 230.863V583.037C745.919 594.872 743 598.479 738 601.979C734.098 604.71 728 605.665 721.5 601.979C682.247 579.715 600.549 532.842 579.434 518.269Z" fill="#B6C7E5"/>
<path d="M570.375 463.625C565.502 458.767 566.314 450.477 566.314 443.481C566.314 338.908 569.314 136.549 569.314 131.691C569.314 126.833 573.375 126.968 575.405 127.643C623.456 155.304 722.775 211.436 727.648 214.675C732.521 217.913 733.739 226.818 733.739 230.866V542.561C733.739 552.276 726.971 552.006 723.587 550.656C676.213 523.67 575.248 468.483 570.375 463.625Z" fill="white"/>
<path d="M595.053 305.838V276.66L709.682 342.727V369.754L595.053 305.838Z" fill="#EDF3FF"/>
<path d="M594.361 352.069V322.891L708.99 388.958V415.984L594.361 352.069Z" fill="#EDF3FF"/>
<path d="M617.15 425.264V396.086L666.525 425.263V452.29L617.15 425.264Z" fill="#7D8CA6"/>
<path d="M530.614 325.103C515.191 323.063 510.77 337.509 510.487 344.987C491.77 351.31 497.096 368.09 502.098 375.689C496.376 379.064 487.25 389.333 496.526 403.418C508.121 421.023 544.863 410.644 552.689 388.802C558.95 371.329 551.671 359.75 547.249 356.146C548.13 346.648 546.036 327.143 530.614 325.103Z" fill="#4B5361"/>
<path fill-rule="evenodd" clip-rule="evenodd" d="M519.198 553.051C517.577 553.399 514.023 554.704 512.783 557.143L530.125 584.331C531.288 584.178 533.57 583.252 533.39 580.778C533.209 578.304 530.005 566.95 528.425 561.583C526.328 560.273 521.546 556.732 519.198 553.051ZM578.819 580.124C578.504 581.752 578.312 585.533 580.07 587.629L611.879 582.331C612.194 581.2 612.237 578.738 609.89 577.934C607.543 577.131 595.842 575.629 590.285 574.979C588.257 576.395 583.126 579.406 578.819 580.124Z" fill="#4B5361"/>
<path d="M595.809 568.577C595.809 568.577 574.5 434.476 556.999 424.478L542 430.477L544 454.477L565.5 502.477L572.135 572.521C578.71 575.477 590.658 571.123 595.809 568.577Z" fill="url(#paint0_linear)"/>
<path d="M552.499 451.479L568.499 501.979C571.499 510.479 562.154 521.578 560.499 523.979C550.499 538.479 548.499 541.479 537.435 561.219C532.668 559.481 522.107 554.1 517.999 546.479C528.499 530.979 535.999 524.978 548.499 504.479C545.499 488.479 518.999 460.979 521.999 438.479L560.499 430.48C561.999 432.479 552.499 451.479 552.499 451.479Z" fill="#C4B7B6"/>
<path d="M542.164 352.185C542.194 344.121 536.478 335.224 533.617 331.783C536.041 338.095 527.716 347.876 523.25 351.978C524.079 353.519 525.232 357.692 523.213 362.057C520.689 367.514 521.052 368.162 522.994 369.518C524.936 370.873 534.684 367.57 532.742 366.215C531.188 365.131 532.107 363.933 531.563 360.666C535.084 361.199 542.134 360.248 542.164 352.185Z" fill="#EDC7C5"/>
<path d="M557.5 383.477C554.371 381.763 555.5 372.977 557 370.977C565.123 370.978 580.884 372.418 583.057 372.056C585.774 371.603 593.552 343.625 593.802 342.076C594.051 340.526 594.214 329.309 594.419 327.496C594.625 325.684 596.766 326.344 596.766 327.868C596.766 329.087 596.958 332.576 597.054 334.169C598.495 334.183 601.5 334.952 601.994 337.917C602.488 340.883 599.977 343.079 598.659 343.806C596.82 355.626 592.542 379.619 590.138 381.035C587.734 382.452 567.297 383.368 557.5 383.477Z" fill="#EDC7C5"/>
<path d="M509.404 400.279C508.91 397.314 503.929 394.842 501.5 393.977C499.387 397.038 494.511 402.501 493.029 404.577C491.547 406.652 473.531 399.782 464.708 396.088C463.432 394.523 451.041 388.713 450.465 388.302C449.889 387.89 449.23 388.507 449.395 389.496C449.526 390.286 453.017 392.956 454.746 394.192C454.183 395.386 453.354 398.335 454.54 400.575C455.726 402.816 460.66 401.757 462.979 400.947C469.799 404.806 484.953 413.084 491.012 415.325C497.072 417.567 505.891 406.621 509.404 400.279Z" fill="#EDC7C5"/>
<path fill-rule="evenodd" clip-rule="evenodd" d="M392 328.751V274.597L521 196.977V249.325L392 328.751ZM670.768 268.765C681.39 267.328 684 258.681 684 245.714C684 228.844 666.019 196.977 645.935 196.977C625.85 196.977 626.562 216.197 629.621 229.239C631.408 236.857 635.745 246.347 642.158 254.36C642.179 254.549 642.201 254.736 642.225 254.923C644.988 258.759 650.505 265.164 658.546 267.881L658.621 267.917L658.722 267.964L658.85 268.023C658.965 268.046 659.08 268.069 659.195 268.091C662.617 269.144 666.48 269.522 670.768 268.765ZM520.463 366.566C523.739 366.528 531.078 366.016 534.221 364.274C537.365 362.532 551.532 366.636 558.222 368.905C559.386 372.856 561.008 381.688 558.193 385.406C557.426 385.338 556.546 385.21 555.661 385.08C553.099 384.706 550.5 384.327 550.5 385.406C550.5 387.256 550.618 387.654 551.145 389.439C551.309 389.997 551.514 390.691 551.768 391.607C551.856 391.925 551.949 392.235 552.04 392.541L552.04 392.542C552.775 395.002 553.429 397.193 551 400.977C551.495 409.676 555.472 417.128 558.928 423.603C560.835 427.177 562.583 430.453 563.5 433.477C557.317 433.841 547.502 437.112 538.582 440.086L538.581 440.086C531.63 442.403 525.223 444.539 521.5 444.977C521.027 441.096 521.443 437.322 521.874 433.414C522.387 428.761 522.921 423.918 522 418.477C520.596 410.176 514.998 397.423 514.998 397.423L508.982 402.232C505.541 400.267 498.854 395.392 499.637 391.607C500.617 386.875 508.345 371.122 511.661 369.809C514.314 368.758 518.635 367.209 520.463 366.566Z" fill="#22a6b3"/>
<path opacity="0.1" d="M684 245.714C684 262.584 679.582 272.142 658.85 268.023C643.216 260.816 632.68 242.282 629.621 229.239C626.562 216.197 625.85 196.977 645.935 196.977C666.019 196.977 684 228.844 684 245.714Z" fill="#EE7E79"/>
<path d="M664 231.222C664 236.846 662.58 240.032 655.916 238.659C650.891 236.256 647.504 230.078 646.521 225.731C645.538 221.383 645.309 214.977 651.765 214.977C658.22 214.977 664 225.599 664 231.222Z" fill="white"/>
<path d="M672 267.41C672 258.26 662.367 240.977 651.608 240.977C642.549 240.977 641.388 248.365 642.225 254.923C646.327 260.618 656.5 271.977 671.987 268.521C671.996 268.157 672 267.787 672 267.41Z" fill="white"/>
<path opacity="0.5" d="M392 328.751V274.597L521 196.977V249.325L392 328.751Z" fill="#7D8CA6"/>
<path d="M430.838 274.041V268.337L513.37 218.477V224.368L430.838 274.041Z" fill="#EDF3FF"/>
<path d="M432.227 289.911V285.138L514.146 236.121V241.076L432.227 289.911Z" fill="#EDF3FF"/>
<ellipse cx="414.193" cy="291.647" rx="13.1774" ry="14.2177" fill="#EE7E79"/>
<defs>
<linearGradient id="paint0_linear" x1="555.454" y1="424.735" x2="580.22" y2="573.411" gradientUnits="userSpaceOnUse">
<stop offset="0.0678889" stop-color="#C3B7B6"/>
<stop offset="0.419103" stop-color="#B9ABAA"/>
</linearGradient>
</defs>
</svg>