<svg class="illustration" width="1155" height="700" viewBox="0 0 1155 700" fill="none" xmlns="http://www.w3.org/2000/svg">
<path d="M590.98 196.664C587.04 198.914 582.61 200.514 578 200.514C573.3 200.514 568.88 198.974 564.99 196.794C564.85 197.534 564.78 198.304 564.78 199.084V201.294C568.76 203.364 573.24 204.804 577.99 204.804H578C582.69 204.804 587.18 203.294 591.21 201.154V199.084C591.21 198.254 591.13 197.444 590.98 196.664Z" fill="#9C7761"/>
<path d="M178 609.134C178 609.134 292.174 570.936 325.613 523.816C396.773 423.544 518.069 387.966 518.069 387.966C518.069 387.966 660.389 371.792 715.377 441.336C782.74 526.532 978 609.134 978 609.134H178Z" fill="#FFE800" stroke="#FFE800"/>
<path d="M590.12 179.292L578 179.102L565.7 178.902C565.16 179.542 568.16 184.692 572.73 187.292C574.3 188.192 576.05 188.782 577.91 188.782C577.94 188.782 577.97 188.782 578 188.782C580 188.772 581.9 188.242 583.58 187.422C588.26 185.172 591.24 180.742 590.12 179.292Z" fill="white"/>
<path fill-rule="evenodd" clip-rule="evenodd" d="M565.51 213.281C565.7 214.371 565.82 215.471 565.9 216.561C565.94 217.201 565.97 217.841 565.99 218.481L565.99 218.51C566 218.97 566.01 219.421 566.01 219.881C565.99 222.081 565.9 224.281 565.51 226.481C565.11 224.281 565.02 222.081 565.01 219.881C565.01 218.781 565.04 217.691 565.11 216.591C565.115 216.511 565.122 216.431 565.13 216.351C565.137 216.271 565.145 216.191 565.15 216.111C565.22 215.171 565.34 214.221 565.51 213.281ZM591.03 215.201C591.11 215.981 591.17 216.761 591.21 217.551C591.24 218.321 591.25 219.101 591.26 219.881C591.24 222.081 591.15 224.281 590.76 226.481C590.36 224.281 590.27 222.081 590.26 219.881C590.26 219.181 590.27 218.481 590.31 217.781C590.31 217.681 590.31 217.581 590.32 217.481C590.38 216.081 590.51 214.681 590.76 213.281C590.87 213.921 590.96 214.561 591.03 215.201ZM582.89 216.983C582.95 216.523 583.02 216.073 583.1 215.613C583.18 216.083 583.25 216.543 583.31 217.013C583.53 218.743 583.58 220.483 583.6 222.213C583.59 223.063 583.57 223.903 583.54 224.753C583.47 226.103 583.34 227.463 583.1 228.813C582.87 227.573 582.75 226.323 582.68 225.083C582.62 224.123 582.6 223.173 582.6 222.213C582.61 220.473 582.67 218.723 582.89 216.983ZM573.027 216.499L573.027 216.499L573.01 216.613C572.74 218.483 572.68 220.343 572.67 222.213C572.67 223.093 572.69 223.973 572.74 224.863C572.8 226.173 572.93 227.493 573.17 228.813C573.39 227.603 573.51 226.383 573.58 225.173C573.64 224.183 573.66 223.203 573.67 222.213C573.65 220.353 573.59 218.493 573.33 216.623L573.311 216.498C573.267 216.207 573.222 215.91 573.17 215.613C573.117 215.905 573.072 216.205 573.027 216.499Z" fill="#28221D"/>
<path d="M597.79 133.792C602.93 133.792 607.58 135.932 610.88 139.362V130.102C610.88 129.352 610.83 128.622 610.74 127.902C607.79 125.822 604.39 123.412 600.69 121.152C593.88 124.102 585.96 126.642 578 128.662C565.83 131.762 553.57 133.632 545.11 133.882V139.362C548.41 135.932 553.06 133.792 558.2 133.792C568.23 133.792 576.37 141.932 576.37 151.962C576.37 153.632 576.15 155.242 575.72 156.772C573.61 164.482 566.56 170.132 558.2 170.132C553.06 170.132 548.41 168.002 545.11 164.562V166.222C545.11 171.322 546.22 176.342 548.35 180.882C548.9 182.062 549.6 183.142 550.4 184.142C552.65 186.922 557.98 192.892 564.99 196.792C568.88 198.972 573.3 200.512 578 200.512C582.61 200.512 587.04 198.912 590.98 196.662C597.78 192.792 603.14 186.992 605.48 184.212C606.36 183.172 607.12 182.012 607.7 180.752C609.79 176.242 610.88 171.272 610.88 166.222V164.562C607.58 168.002 602.93 170.132 597.79 170.132C589.44 170.132 582.4 164.502 580.28 156.812C579.85 155.272 579.62 153.642 579.62 151.962C579.62 141.932 587.76 133.792 597.79 133.792ZM583.58 187.422C581.9 188.242 580 188.772 578 188.782C577.97 188.782 577.94 188.782 577.91 188.782C576.05 188.782 574.3 188.192 572.73 187.292C568.16 184.692 565.16 179.542 565.7 178.902L578 179.102L590.12 179.292C591.24 180.742 588.26 185.172 583.58 187.422ZM579.24 157.372C580.14 161.962 581.31 167.062 582.1 167.392C582.78 167.662 586.27 169.972 585.87 170.732C585.01 172.372 582.42 171.872 581.66 173.162C580.89 174.462 578 174.462 578 174.462C578 174.462 575.1 174.462 574.34 173.162C573.57 171.872 570.99 172.372 570.13 170.732C569.73 169.972 573.22 167.662 573.89 167.392C574.6 167.092 575.86 161.822 576.82 157.342C576.84 157.262 576.86 157.182 576.89 157.112C577.09 156.622 577.54 156.382 578 156.372C578.48 156.362 578.97 156.622 579.17 157.132C579.2 157.212 579.22 157.292 579.24 157.372Z" fill="#ECC19C"/>
<path fill-rule="evenodd" clip-rule="evenodd" d="M529.34 206.483H557.75C558.02 205.163 559.78 204.373 561.24 205.063C562.36 205.593 563.49 206.063 564.62 206.483H564.78V201.293V199.083C564.78 198.303 564.85 197.533 564.99 196.793C557.98 192.893 552.65 186.923 550.4 184.143C549.6 183.143 548.9 182.063 548.35 180.883C546.22 176.343 545.11 171.323 545.11 166.223V164.563C541.96 161.303 540.03 156.863 540.03 151.963C540.03 147.073 541.96 142.633 545.11 139.363V133.883C553.57 133.633 565.83 131.763 578 128.663C585.96 126.643 593.88 124.103 600.69 121.153C604.264 123.336 607.558 125.659 610.437 127.689L610.437 127.689L610.74 127.903C610.83 128.623 610.88 129.353 610.88 130.103V139.363C614.03 142.633 615.97 147.073 615.97 151.963C615.97 156.863 614.03 161.303 610.88 164.563V166.223C610.88 171.273 609.79 176.243 607.7 180.753C607.12 182.013 606.36 183.173 605.48 184.213C603.14 186.993 597.78 192.793 590.98 196.663C591.13 197.443 591.21 198.253 591.21 199.083V201.153V206.483H591.29C592.53 206.043 593.78 205.533 595.04 204.963C596.53 204.283 598.32 205.113 598.52 206.483H626.65C630.29 206.483 632.78 202.843 631.49 199.443C626.2 185.493 623.12 154.133 621.56 132.723C621.78 132.393 621.9 131.923 621.94 131.303C623.3 108.473 613.84 90.993 591.21 93.523C568.02 85.323 546.18 98.323 537.72 115.073C535.08 120.293 533.74 125.883 534.06 131.303C534.1 132.043 534.72 132.613 535.82 133.033C533.91 154.333 529.81 185.473 524.5 199.443C523.22 202.843 525.71 206.483 529.34 206.483ZM663.84 355.874C662.03 356.984 659.84 358.204 657.34 359.444C653.74 361.234 649.51 363.094 644.84 364.934C639.46 367.054 633.49 369.134 627.17 371.114C626.78 371.244 626.38 371.364 625.98 371.484L625.97 371.494C623.94 372.124 621.88 372.744 619.78 373.354C618.88 373.624 617.97 373.884 617.05 374.144C601.93 378.434 585.56 382.124 570.27 384.924C569.84 385.004 569.41 385.084 568.99 385.154C561.32 382.934 553.32 380.364 545.31 377.574C541.15 376.134 536.98 374.624 532.86 373.074L532.71 373.014C529.96 371.974 527.22 370.924 524.52 369.854C516.95 366.854 509.63 363.754 502.82 360.664C498.61 358.754 494.59 356.844 490.85 354.984L532.86 365.074V364.724C532.98 364.884 533.09 365.024 533.22 365.164C533.77 365.794 534.36 366.184 534.98 366.334C537.38 366.904 539.9 367.424 542.5 367.894H542.51H542.52C542.64 367.914 542.76 367.934 542.89 367.964C568.63 372.554 602.51 372.494 620.95 369.324C620.99 369.314 621.04 369.304 621.08 369.304C623.37 368.904 625.41 368.454 627.17 367.964C629.71 367.254 631.65 366.454 632.87 365.574C633.38 365.204 633.85 364.514 634.28 363.554L663.84 355.874ZM712.26 431.274V431.284C713.22 433.274 713.76 435.514 713.76 437.884C713.76 446.294 706.94 453.104 698.53 453.104H643.92C638.84 453.104 634.34 450.614 631.58 446.794C635.08 447.014 638.58 447.014 642.09 446.794C647.56 446.444 651.78 441.814 651.78 436.334C651.78 434.714 651.42 433.184 650.77 431.814C650.29 430.804 649.66 429.884 648.91 429.084C646.83 426.874 643.83 425.574 640.57 425.874C640.063 425.923 639.557 425.953 639.059 425.982L639.02 425.984C639.02 425.154 638.99 424.324 638.91 423.504C640.48 422.964 642.16 422.664 643.92 422.664H648.88H675.37H698.53C700.69 422.664 702.74 423.114 704.6 423.924C707.95 425.374 710.67 427.994 712.26 431.274ZM491.27 435.904C491.27 441.784 495.8 446.745 501.66 447.115C504.85 447.315 508.03 447.344 511.22 447.205C511.425 447.394 511.642 447.578 511.857 447.761C511.925 447.819 511.993 447.877 512.06 447.935V447.945C509.88 449.154 507.37 449.835 504.71 449.835H450.09C445.01 449.835 440.51 447.344 437.75 443.525C435.93 441.015 434.86 437.945 434.86 434.615C434.86 426.205 441.68 419.395 450.09 419.395H462.97H462.98H474.96C479.39 421.424 483.96 423.435 488.63 425.404C490.6 426.234 492.59 427.065 494.6 427.875C492.55 429.924 491.27 432.775 491.27 435.904Z" fill="#2D2620"/>
<path d="M712.19 361.325C712.07 361.155 711.95 360.985 711.82 360.825C706.73 354.015 699.46 349.755 691.68 348.325C691.15 348.525 690.6 348.695 690.04 348.855C690.03 348.855 690.03 348.855 690.03 348.855C688 349.415 685.82 349.735 683.64 349.735C682.36 349.735 681.09 349.625 679.87 349.425C679.01 349.285 678.18 349.105 677.4 348.895C676.26 349.185 675.13 349.555 674.01 350.005C671.52 350.965 669.1 352.265 666.83 353.905C666.01 354.495 665.01 355.155 663.84 355.875C662.03 356.985 659.84 358.205 657.34 359.445C653.74 361.235 649.51 363.095 644.84 364.935C639.46 367.055 633.49 369.135 627.17 371.115C626.78 371.245 626.38 371.365 625.98 371.485L625.97 371.495C623.94 372.125 621.88 372.745 619.78 373.355C618.88 373.625 617.97 373.885 617.05 374.145C601.93 378.435 585.56 382.125 570.27 384.925C569.84 385.005 569.41 385.085 568.99 385.155C561.32 382.935 553.32 380.365 545.31 377.575C541.15 376.135 536.98 374.625 532.86 373.075C532.81 373.055 532.76 373.035 532.71 373.015C529.96 371.975 527.22 370.925 524.52 369.855C516.95 366.855 509.63 363.755 502.82 360.665C498.61 358.755 494.59 356.845 490.85 354.985C488.55 353.835 486.36 352.705 484.29 351.605C482.86 350.845 481.39 350.195 479.9 349.665C479.83 349.675 479.76 349.675 479.69 349.675H479.6H479.59H479.57H479.54C477.17 349.665 475.01 349.285 473.14 348.745C472.21 348.475 471.35 348.165 470.54 347.825C458.39 347.255 446.42 353.565 440.33 365.015C431.89 380.855 437.9 400.545 453.74 408.975C456.54 410.465 459.44 411.955 462.41 413.425C466.45 415.435 470.64 417.425 474.96 419.395C479.39 421.425 483.96 423.435 488.63 425.405C490.6 426.235 492.59 427.065 494.6 427.875C496.8 428.775 499.02 429.665 501.25 430.545C501.35 430.955 501.45 431.365 501.57 431.775C501.59 431.835 501.6 431.895 501.62 431.955C501.76 432.425 501.9 432.885 502.05 433.345C502.05 433.355 502.05 433.355 502.05 433.355C502.21 433.825 502.38 434.275 502.55 434.725C502.57 434.765 502.59 434.815 502.6 434.855C502.75 435.225 502.9 435.595 503.06 435.955C503.11 436.075 503.16 436.185 503.21 436.295C503.38 436.685 503.56 437.065 503.75 437.435C503.97 437.875 504.2 438.315 504.44 438.745C504.6 439.045 504.77 439.335 504.95 439.625C504.99 439.695 505.04 439.775 505.08 439.845C505.28 440.175 505.49 440.495 505.7 440.815C505.9 441.115 506.1 441.415 506.31 441.715C506.38 441.805 506.44 441.895 506.52 441.995C506.7 442.255 506.9 442.515 507.1 442.775C507.34 443.095 507.59 443.405 507.85 443.715C508.02 443.925 508.2 444.135 508.38 444.335C508.78 444.795 509.19 445.245 509.62 445.675C509.82 445.885 510.03 446.095 510.24 446.295C510.56 446.605 510.88 446.915 511.22 447.205C511.49 447.455 511.78 447.695 512.06 447.935V447.945C512.78 448.535 513.53 449.105 514.3 449.645C514.45 449.755 514.6 449.855 514.76 449.965C515 450.125 515.25 450.285 515.5 450.445C517.08 451.445 518.75 452.315 520.5 453.035C520.71 453.125 520.93 453.215 521.15 453.295C521.2 453.315 521.25 453.335 521.3 453.355C522.09 453.655 522.89 453.925 523.71 454.165C523.75 454.175 523.79 454.195 523.84 454.205C524.24 454.325 524.65 454.435 525.06 454.535C526.09 454.785 527.14 454.995 528.21 455.145C528.69 455.215 529.17 455.275 529.65 455.315C529.7 455.325 529.74 455.325 529.79 455.325C530.28 455.375 530.78 455.415 531.27 455.435C531.79 455.465 532.3 455.475 532.82 455.475C533.75 455.475 534.69 455.435 535.63 455.355C535.67 455.355 535.72 455.345 535.76 455.345C536.45 455.285 537.14 455.225 537.85 455.155C538.33 455.115 538.82 455.065 539.32 455.015C547.39 454.235 556.29 453.095 565.74 451.615C566.2 451.735 566.67 451.855 567.13 451.955C570.36 452.765 573.56 453.515 576.72 454.195C586.08 456.215 595.05 457.725 603.73 458.485C614.78 459.435 625.01 454.745 631.58 446.795C634.2 443.625 636.24 439.945 637.51 435.895C637.52 435.875 637.53 435.855 637.53 435.825C638.23 433.615 638.69 431.295 638.9 428.895C638.98 427.915 639.03 426.945 639.02 425.985C639.02 425.155 638.99 424.325 638.91 423.505C640.48 422.965 642.16 422.665 643.92 422.665H648.88H675.37C678.27 421.425 681.1 420.145 683.88 418.815C688.22 416.725 692.4 414.525 696.45 412.105C699.29 410.425 702.06 408.625 704.77 406.685C719.34 396.205 722.67 375.895 712.19 361.325ZM532.15 396.675C532.37 395.975 532.61 395.305 532.86 394.675C533.55 392.915 534.33 391.385 535.16 390.125L535.17 390.115C537.58 386.415 540.41 384.955 542.53 386.825C543.13 387.355 543.63 388.125 544.03 389.075C544.03 389.085 544.04 389.095 544.04 389.105C544.82 390.985 545.19 393.565 545.12 396.485C545.06 399.635 544.49 403.175 543.39 406.595C541.87 411.305 539.69 414.765 537.51 416.325C535.92 417.475 534.33 417.595 533.01 416.435C532.42 415.915 531.93 415.175 531.54 414.255C529.87 410.355 530.02 403.295 532.15 396.675Z" fill="#07038C"/>
<path d="M724.23 261.731L706.83 257.631L703.78 256.911L695.76 255.021L691.16 253.931C688.39 265.701 685.89 275.981 683.6 284.661C682.99 286.961 682.4 289.151 681.83 291.221C681.06 289.471 680.27 287.681 679.47 285.851C677.12 280.501 674.64 274.891 672.01 269.341C664.358 253.224 654.657 232.968 636.58 226.621C633.89 225.671 630.43 224.551 626.26 223.421C619.98 221.721 612.08 220.021 602.35 218.751C601.11 218.591 599.84 218.431 598.54 218.281V206.731C598.54 206.641 598.53 206.561 598.52 206.481C598.32 205.111 596.53 204.281 595.04 204.961C593.78 205.531 592.53 206.041 591.29 206.481C591.26 206.491 591.23 206.501 591.21 206.511C582.05 209.771 573.25 209.651 564.78 206.541C564.72 206.521 564.67 206.501 564.62 206.481C563.49 206.061 562.36 205.591 561.24 205.061C559.78 204.371 558.02 205.161 557.75 206.481C557.73 206.591 557.72 206.701 557.72 206.821V217.191C552.84 217.731 547 218.591 541.03 219.901C537.4 220.701 512.405 218.386 482.76 291.541C482.137 293.08 481.39 294.521 480.71 295.941C479.7 292.641 478.72 288.921 477.82 284.801C475.94 276.231 474.41 265.931 473.6 253.961L470.64 254.161L463.98 254.611L458.65 254.971L437.61 256.401L434.69 256.601C435.59 269.821 437.718 278.093 439.45 291.891C444.853 334.911 468.25 346.721 468.25 346.721L470.54 347.821C471.35 348.161 472.21 348.471 473.14 348.741C475.01 349.281 477.17 349.661 479.54 349.671H479.57H479.59H479.6H479.69C479.76 349.671 479.83 349.671 479.9 349.661C482.41 349.631 484.75 349.191 486.78 348.551C488.84 347.901 490.59 347.061 492.1 346.171C503.211 339.588 509.298 326.473 514.68 315.321C517.6 309.261 520.47 302.841 523.3 296.481C524.58 293.601 525.85 290.751 527.11 287.961C527.93 286.141 528.75 284.351 529.55 282.611C529.24 284.761 528.95 286.951 528.68 289.171C525.02 320.251 526.79 356.581 532.86 364.721C532.98 364.881 533.09 365.021 533.22 365.161C533.77 365.791 534.36 366.181 534.98 366.331C537.38 366.901 539.9 367.421 542.5 367.891C542.5 367.891 542.5 367.891 542.51 367.891C542.51 367.891 542.51 367.891 542.52 367.891C542.64 367.911 542.76 367.931 542.89 367.961C568.63 372.551 602.51 372.491 620.95 369.321C620.99 369.311 621.04 369.301 621.08 369.301C623.37 368.901 625.41 368.451 627.17 367.961C629.71 367.251 631.65 366.451 632.87 365.571C633.38 365.201 633.85 364.511 634.28 363.551C636.08 359.541 637.16 350.691 637.43 339.571C637.9 320.561 636.01 294.881 631.31 275.271C631.83 276.231 632.36 277.221 632.9 278.251C635.82 283.821 638.8 290.311 641.73 296.931C648.787 312.873 656.255 340.639 674.78 348.001C675.59 348.331 676.47 348.631 677.4 348.891C678.18 349.101 679.01 349.281 679.87 349.421C681.09 349.621 682.36 349.731 683.64 349.731C685.82 349.731 688 349.411 690.03 348.851C690.03 348.851 690.03 348.851 690.04 348.851C690.6 348.691 691.15 348.521 691.68 348.321C691.79 348.291 691.89 348.251 692 348.211C694.37 347.321 696.41 346.141 698.1 344.911C699.7 343.741 701.01 342.521 702.15 341.311C705.654 337.555 708.225 333.031 710.34 328.381C712.01 324.701 713.5 320.721 714.99 316.281C715.17 315.751 715.35 315.211 715.53 314.661C710.8 315.751 705.62 314.711 701.58 311.381C694.71 305.711 693.74 295.541 699.41 288.671C705.09 281.801 715.26 280.831 722.13 286.501C722.49 286.801 722.83 287.111 723.16 287.431C725.04 280.001 727.01 271.831 729.12 262.881L724.23 261.731ZM590.76 213.281C590.87 213.921 590.96 214.561 591.03 215.201C591.11 215.981 591.17 216.761 591.21 217.551C591.24 218.321 591.25 219.101 591.26 219.881C591.24 222.081 591.15 224.281 590.76 226.481C590.36 224.281 590.27 222.081 590.26 219.881C590.26 219.181 590.27 218.481 590.31 217.781C590.31 217.681 590.31 217.581 590.32 217.481C590.38 216.081 590.51 214.681 590.76 213.281ZM583.1 215.611C583.18 216.081 583.25 216.541 583.31 217.011C583.53 218.741 583.58 220.481 583.6 222.211C583.59 223.061 583.57 223.901 583.54 224.751C583.47 226.101 583.34 227.461 583.1 228.811C582.87 227.571 582.75 226.321 582.68 225.081C582.62 224.121 582.6 223.171 582.6 222.211C582.61 220.471 582.67 218.721 582.89 216.981C582.95 216.521 583.02 216.071 583.1 215.611ZM573.17 215.611C573.23 215.951 573.28 216.291 573.33 216.621C573.59 218.491 573.65 220.351 573.67 222.211C573.66 223.201 573.64 224.181 573.58 225.171C573.51 226.381 573.39 227.601 573.17 228.811C572.93 227.491 572.8 226.171 572.74 224.861C572.69 223.971 572.67 223.091 572.67 222.211C572.68 220.341 572.74 218.481 573.01 216.611C573.06 216.281 573.11 215.941 573.17 215.611ZM565.51 213.281C565.7 214.371 565.82 215.471 565.9 216.561C565.94 217.201 565.97 217.841 565.99 218.481C566 218.951 566.01 219.411 566.01 219.881C565.99 222.081 565.9 224.281 565.51 226.481C565.11 224.281 565.02 222.081 565.01 219.881C565.01 218.781 565.04 217.691 565.11 216.591C565.12 216.431 565.14 216.271 565.15 216.111C565.22 215.171 565.34 214.221 565.51 213.281Z" fill="#F20505"/>
<path fill-rule="evenodd" clip-rule="evenodd" d="M578 174.461C578 174.461 575.1 174.461 574.34 173.161C573.98 172.559 573.226 172.347 572.436 172.125C571.535 171.872 570.588 171.605 570.13 170.731C569.73 169.971 573.22 167.661 573.89 167.391C574.6 167.091 575.86 161.821 576.82 157.341L576.82 157.34C576.84 157.26 576.86 157.181 576.89 157.111C577.09 156.621 577.54 156.381 578 156.371C578.48 156.361 578.97 156.621 579.17 157.131C579.2 157.211 579.22 157.29 579.239 157.37L579.24 157.371C580.14 161.961 581.31 167.061 582.1 167.391C582.78 167.661 586.27 169.971 585.87 170.731C585.412 171.605 584.463 171.871 583.561 172.124C582.77 172.347 582.015 172.558 581.66 173.161C580.89 174.461 578 174.461 578 174.461ZM735.01 217.471C733.4 217.041 731.75 217.621 730.74 218.811L732.37 212.361C732.94 210.121 731.58 207.851 729.34 207.291C727.6 206.841 725.83 207.581 724.88 208.991L724.97 208.621C725.52 206.381 724.15 204.121 721.91 203.571C719.67 203.021 717.41 204.401 716.86 206.641L713.37 220.891C712.36 219.361 710.9 218.021 709.12 217.111C707.26 216.161 705.13 215.641 702.76 215.511C700.45 215.381 698.48 217.141 698.35 219.441C698.3 220.371 698.55 221.241 699.02 221.961C698.88 221.951 698.73 221.941 698.58 221.941C696.61 221.921 692.91 227.901 692.98 236.481C693.03 242.781 694.56 250.171 695.76 255.021L703.78 256.911L706.83 257.631L724.23 261.731C727.35 258.921 732.19 252.821 732.89 241.631L737.97 222.581C738.56 220.351 737.23 218.061 735.01 217.471ZM702.28 223.851C703.58 223.921 704.48 224.161 705.08 224.431C705.53 224.641 705.82 224.851 706.05 225.071C706.4 225.411 706.66 225.821 706.87 226.461C707.09 227.101 707.21 227.961 707.21 228.981C707.22 230.341 706.99 231.941 706.6 233.551C706.24 235.131 705.73 236.701 705.2 238.091C703.17 237.111 702.61 235.071 702.11 232.511C701.857 231.206 701.854 229.746 701.851 228.337C701.848 226.571 701.845 224.887 701.35 223.691C701.65 223.781 701.96 223.831 702.28 223.851ZM648.91 429.081C649.66 429.881 650.29 430.801 650.77 431.811C651.42 433.181 651.78 434.711 651.78 436.331C651.78 441.811 647.56 446.441 642.09 446.791C638.58 447.011 635.08 447.011 631.58 446.791C634.2 443.621 636.24 439.941 637.51 435.891C637.52 435.871 637.53 435.851 637.53 435.821C638.23 433.611 638.69 431.291 638.9 428.891C638.98 427.911 639.03 426.941 639.02 425.981L639.059 425.979C639.557 425.949 640.063 425.92 640.57 425.871C643.83 425.571 646.83 426.871 648.91 429.081ZM508.38 444.331C508.78 444.791 509.19 445.241 509.62 445.671C509.81 445.881 510.03 446.101 510.24 446.291C510.56 446.601 510.88 446.911 511.219 447.201C508.03 447.341 504.849 447.311 501.659 447.111C495.799 446.741 491.27 441.781 491.27 435.901C491.27 432.771 492.549 429.921 494.599 427.871C496.799 428.771 499.02 429.661 501.25 430.541C501.349 430.951 501.45 431.361 501.57 431.771C501.575 431.787 501.58 431.803 501.584 431.819C501.588 431.833 501.591 431.847 501.595 431.861C501.602 431.891 501.609 431.921 501.62 431.951C501.749 432.42 501.899 432.879 502.049 433.339L502.049 433.341V433.351L502.051 433.355L502.051 433.355C502.21 433.814 502.37 434.272 502.549 434.721C502.57 434.761 502.59 434.811 502.599 434.851C502.75 435.221 502.9 435.591 503.06 435.951C503.109 436.071 503.159 436.181 503.21 436.291C503.38 436.681 503.56 437.061 503.75 437.431C503.969 437.871 504.2 438.311 504.44 438.741C504.599 439.041 504.77 439.331 504.95 439.621L504.963 439.644C504.979 439.672 504.996 439.7 505.013 439.729L505.015 439.732L505.016 439.733L505.016 439.734C505.038 439.771 505.06 439.807 505.08 439.841C505.28 440.171 505.479 440.491 505.7 440.811C505.89 441.121 506.099 441.421 506.31 441.711C506.339 441.75 506.367 441.788 506.396 441.827L506.398 441.829L506.399 441.831L506.4 441.832L506.402 441.835C506.417 441.856 506.433 441.878 506.449 441.9L506.475 441.933C506.485 441.947 506.495 441.96 506.506 441.974L506.52 441.991C506.7 442.261 506.89 442.521 507.099 442.771C507.5 443.311 507.93 443.831 508.38 444.331ZM577.99 204.801C573.24 204.801 568.76 203.361 564.78 201.291V206.481V206.541C573.25 209.651 582.05 209.771 591.21 206.511V206.481V201.151C587.18 203.291 582.69 204.801 578 204.801H577.99ZM467.18 221.961C467.32 221.951 467.47 221.941 467.62 221.941C469.58 221.921 473.29 227.901 473.21 236.481C473.18 239.901 472.72 243.641 472.11 247.121C471.67 249.691 471.14 252.111 470.64 254.161L463.98 254.611L458.65 254.971L437.61 256.401C435.53 252.971 433.7 248.151 433.29 241.581L428.23 222.581C427.77 220.851 428.46 219.091 429.84 218.111C430.23 217.821 430.69 217.601 431.19 217.471C432.79 217.051 434.43 217.611 435.44 218.791L433.82 212.361C433.26 210.121 434.61 207.851 436.85 207.291C438.6 206.841 440.37 207.581 441.32 208.991L441.23 208.621C440.68 206.381 442.05 204.121 444.29 203.571C446.53 203.021 448.79 204.401 449.34 206.641L452.83 220.881C453.25 220.241 453.75 219.631 454.33 219.071C455.28 218.151 456.43 217.381 457.71 216.811C459.41 216.051 461.33 215.631 463.44 215.511C465.74 215.381 467.72 217.141 467.85 219.441C467.9 220.371 467.65 221.241 467.18 221.961ZM459.73 225.581C459.55 225.871 459.38 226.231 459.25 226.681C459.08 227.291 458.98 228.081 458.98 228.981C458.98 230.321 459.2 231.891 459.57 233.481C459.94 235.061 460.45 236.651 460.97 238.061C460.98 238.071 460.98 238.091 460.98 238.101C463.02 237.121 463.59 235.071 464.08 232.511C464.333 231.203 464.338 229.739 464.342 228.326C464.347 226.565 464.351 224.885 464.84 223.691C464.55 223.781 464.24 223.831 463.92 223.851C462.45 223.931 461.5 224.231 460.91 224.531C460.31 224.851 460.01 225.151 459.73 225.581Z" fill="#CF9E76"/>
<path opacity="0.3" fill-rule="evenodd" clip-rule="evenodd" d="M634.5 394.134C639.07 398.144 642.75 403.094 645.27 408.664C647.24 413.014 648.49 417.734 648.88 422.664H643.92C642.16 422.664 640.48 422.964 638.91 423.504C638.6 419.414 637.51 415.504 635.78 411.944C633.65 407.544 630.55 403.684 626.73 400.654C624.66 398.994 622.37 397.594 619.91 396.484C617.76 395.504 615.47 394.754 613.07 394.274C611.85 394.014 610.59 393.834 609.32 393.724C606.05 393.444 602.04 392.894 597.55 392.074C589.69 390.654 580.39 388.424 570.53 385.604C570.429 385.575 570.328 385.546 570.226 385.516C569.874 385.415 569.517 385.313 569.16 385.204C576.58 383.864 584.1 382.334 591.52 380.664C598.59 382.234 604.92 383.304 610.17 383.754C612.21 383.934 614.2 384.244 616.14 384.704C620.06 385.604 623.77 387.054 627.17 388.954C629.8 390.424 632.26 392.164 634.5 394.134ZM519.66 437.453C520.84 437.883 522.03 438.303 523.22 438.713C531.4 441.573 539.62 444.243 547.74 446.663C553.77 448.453 559.73 450.103 565.59 451.573C556.19 453.053 547.71 454.143 540.62 454.873C540.413 454.897 540.208 454.918 540.004 454.939C539.775 454.963 539.547 454.987 539.32 455.013L539.17 455.028C538.722 455.073 538.282 455.117 537.85 455.153C537.14 455.223 536.45 455.283 535.76 455.343C535.74 455.343 535.717 455.345 535.695 455.348C535.672 455.35 535.65 455.353 535.63 455.353C534.69 455.433 533.75 455.473 532.82 455.473C532.3 455.473 531.79 455.463 531.27 455.433C530.78 455.413 530.28 455.373 529.79 455.323C529.74 455.323 529.7 455.323 529.65 455.313C529.17 455.273 528.69 455.213 528.21 455.143C527.14 454.993 526.09 454.783 525.06 454.533C524.65 454.433 524.24 454.323 523.84 454.203C523.811 454.197 523.786 454.188 523.762 454.18C523.744 454.173 523.727 454.167 523.71 454.163C522.89 453.923 522.09 453.653 521.3 453.353L521.15 453.293C520.93 453.213 520.71 453.123 520.5 453.033C518.75 452.313 517.08 451.443 515.5 450.443L515.493 450.439C515.245 450.28 514.998 450.121 514.76 449.963C514.722 449.937 514.684 449.911 514.647 449.885C514.528 449.805 514.414 449.727 514.3 449.643C513.53 449.103 512.78 448.533 512.06 447.943V447.933C511.993 447.875 511.925 447.818 511.857 447.76C511.642 447.577 511.425 447.393 511.22 447.203C510.88 446.913 510.56 446.603 510.24 446.293C510.03 446.093 509.82 445.883 509.62 445.673C509.19 445.243 508.78 444.793 508.38 444.333C508.2 444.133 508.02 443.923 507.85 443.713C507.59 443.403 507.34 443.093 507.1 442.773L507.098 442.771C506.899 442.511 506.699 442.252 506.52 441.993C506.475 441.937 506.437 441.884 506.399 441.832C506.37 441.792 506.341 441.753 506.31 441.713C506.101 441.415 505.902 441.117 505.704 440.818L505.7 440.813C505.49 440.493 505.28 440.173 505.08 439.843C505.06 439.808 505.038 439.771 505.016 439.734C504.993 439.696 504.97 439.658 504.95 439.623C504.77 439.333 504.6 439.043 504.44 438.743C504.2 438.313 503.97 437.873 503.75 437.433C503.56 437.063 503.38 436.683 503.21 436.293C503.16 436.183 503.11 436.073 503.06 435.953C502.9 435.593 502.75 435.223 502.6 434.853C502.59 434.813 502.57 434.763 502.55 434.723C502.38 434.273 502.21 433.823 502.05 433.353V433.343C501.9 432.883 501.76 432.423 501.62 431.953C501.61 431.923 501.602 431.893 501.595 431.863C501.588 431.833 501.58 431.803 501.57 431.773C501.45 431.363 501.35 430.953 501.25 430.543H501.26C507.31 432.933 513.46 435.243 519.66 437.453Z" fill="black"/>
<path fill-rule="evenodd" clip-rule="evenodd" d="M558.2 168.463C567.31 168.463 574.7 161.083 574.7 151.963C574.7 142.853 567.31 135.473 558.2 135.473C552.86 135.473 548.12 138.003 545.11 141.933C542.97 144.713 541.7 148.193 541.7 151.963C541.7 155.743 542.97 159.223 545.11 162.003C548.12 165.933 552.86 168.463 558.2 168.463ZM545.11 142.823C545.64 142.053 546.25 141.333 546.91 140.673C549.8 137.783 553.79 136.003 558.2 136.003C562.61 136.003 566.6 137.783 569.49 140.673C572.38 143.563 574.17 147.553 574.17 151.963C574.17 156.373 572.38 160.363 569.49 163.253C566.6 166.143 562.61 167.933 558.2 167.933C553.79 167.933 549.8 166.143 546.91 163.253C546.25 162.593 545.64 161.873 545.11 161.103C543.29 158.513 542.23 155.363 542.23 151.963C542.23 148.563 543.29 145.413 545.11 142.823ZM610.88 162.003C607.88 165.933 603.13 168.463 597.79 168.463C588.68 168.463 581.3 161.083 581.3 151.963C581.3 142.853 588.68 135.473 597.79 135.473C603.13 135.473 607.88 138.003 610.88 141.933C613.02 144.713 614.29 148.193 614.29 151.963C614.29 155.743 613.02 159.223 610.88 162.003ZM597.79 136.003C593.38 136.003 589.39 137.783 586.5 140.673C583.61 143.563 581.83 147.553 581.83 151.963C581.83 156.373 583.61 160.363 586.5 163.253C589.39 166.143 593.38 167.933 597.79 167.933C602.2 167.933 606.2 166.143 609.09 163.253C609.75 162.593 610.35 161.883 610.88 161.123C612.7 158.533 613.76 155.373 613.76 151.963C613.76 148.553 612.7 145.393 610.88 142.803C610.35 142.043 609.75 141.333 609.09 140.673C606.2 137.783 602.2 136.003 597.79 136.003ZM800.79 303.992C805.97 307.382 811.79 309.002 817.55 309.002C827.55 309.002 837.36 304.112 843.24 295.122C846.63 289.942 848.25 284.112 848.25 278.352C848.25 274.852 847.65 271.382 846.49 268.092C844.33 261.972 840.22 256.482 834.37 252.662C829.19 249.272 823.36 247.652 817.61 247.652C807.61 247.652 797.8 252.542 791.91 261.542C788.53 266.712 786.91 272.542 786.91 278.302C786.91 278.962 786.93 279.622 786.98 280.272C787.56 289.572 792.38 298.502 800.79 303.992ZM793.11 262.322C798.72 253.742 808.07 249.092 817.61 249.092C823.1 249.092 828.64 250.632 833.58 253.862C838.78 257.262 842.55 262.042 844.7 267.402C846.1 270.882 846.82 274.602 846.82 278.352C846.82 283.842 845.28 289.392 842.05 294.332C836.43 302.912 827.09 307.562 817.55 307.562C812.06 307.562 806.51 306.022 801.57 302.792C793.36 297.412 788.74 288.612 788.36 279.492L788.36 279.47C788.35 279.078 788.34 278.695 788.34 278.302C788.34 272.812 789.88 267.262 793.11 262.322ZM702.46 310.324C705.21 312.594 708.54 313.704 711.84 313.704C713.26 313.704 714.67 313.504 716.03 313.094C718.76 312.294 721.28 310.694 723.23 308.344C725.5 305.594 726.61 302.264 726.61 298.954C726.61 295.364 725.3 291.784 722.76 289.004C722.3 288.494 721.79 288.014 721.25 287.564C718.5 285.294 715.17 284.184 711.86 284.184C707.61 284.184 703.39 286.014 700.47 289.544C698.2 292.294 697.1 295.634 697.1 298.934C697.09 303.184 698.92 307.404 702.46 310.324ZM701.01 289.984C703.79 286.624 707.81 284.874 711.86 284.874C715.02 284.874 718.19 285.934 720.81 288.104C721.45 288.634 722.04 289.204 722.55 289.824C724.78 292.414 725.92 295.674 725.92 298.954C725.92 302.114 724.87 305.284 722.7 307.904C720.95 310.024 718.71 311.504 716.28 312.294C714.84 312.774 713.35 313.014 711.84 313.014C708.69 313.014 705.52 311.954 702.89 309.794C699.53 307.014 697.79 302.994 697.79 298.934C697.79 295.784 698.84 292.614 701.01 289.984ZM358.66 534.134C357.7 534.134 356.72 534.084 355.74 533.994C343.87 532.834 334.32 524.834 330.61 514.284C329.53 511.194 328.94 507.894 328.94 504.484C328.94 503.514 328.98 502.544 329.08 501.554C330.58 486.224 343.49 474.754 358.59 474.754C359.56 474.754 360.53 474.804 361.51 474.894C370.61 475.784 378.35 480.694 383.13 487.684C386.42 492.484 388.32 498.274 388.32 504.414C388.32 505.374 388.27 506.354 388.17 507.334C386.68 522.664 373.76 534.134 358.66 534.134ZM330.46 501.694C330.37 502.634 330.32 503.554 330.32 504.484C330.32 507.674 330.86 510.774 331.87 513.664C335.36 523.804 344.51 531.504 355.88 532.614C356.81 532.704 357.74 532.744 358.66 532.744C373.05 532.744 385.37 521.814 386.79 507.194C386.88 506.264 386.93 505.334 386.93 504.414C386.93 498.304 384.96 492.564 381.57 487.884C376.98 481.524 369.79 477.094 361.38 476.274C360.44 476.184 359.51 476.144 358.59 476.144C344.2 476.144 331.89 487.074 330.46 501.694ZM311.41 209.574C306.25 209.574 301.02 210.274 295.82 211.734C270.39 218.864 253.76 241.984 253.76 267.164C253.76 272.314 254.46 277.544 255.92 282.754C263.05 308.174 286.17 324.804 311.34 324.804C316.5 324.804 321.73 324.104 326.93 322.644C352.36 315.514 368.99 292.394 368.99 267.214C368.99 262.064 368.29 256.834 366.83 251.634C359.7 226.204 336.58 209.574 311.41 209.574ZM326.21 320.054C321.24 321.444 316.25 322.114 311.34 322.114C287.35 322.114 265.31 306.254 258.51 282.024C257.12 277.064 256.45 272.064 256.45 267.164C256.45 243.164 272.31 221.124 296.54 214.324C301.51 212.934 306.5 212.264 311.41 212.264C335.4 212.274 357.44 228.124 364.24 252.354C365.63 257.324 366.3 262.314 366.3 267.214C366.3 291.214 350.44 313.254 326.21 320.054ZM911.154 592.321C912.914 592.381 914.664 592.321 916.394 592.151C918.134 592.011 919.864 591.721 921.544 591.281C924.924 590.431 928.144 588.891 930.884 586.591C929.734 587.961 928.324 589.111 926.814 590.121C925.294 591.111 923.604 591.841 921.874 592.411C918.414 593.561 914.734 593.901 911.124 593.831C907.504 593.731 903.914 593.211 900.424 592.361C896.934 591.521 893.524 590.361 890.284 588.831C893.724 589.811 897.194 590.571 900.664 591.211C904.144 591.811 907.654 592.251 911.154 592.321ZM858.93 564.943C859.88 564.273 860.78 563.523 861.53 562.643C862.25 561.743 862.88 560.763 863.3 559.703C862.08 561.623 860.43 563.193 858.51 564.293C856.6 565.423 854.49 566.173 852.33 566.703C850.17 567.243 847.94 567.543 845.7 567.753C844.58 567.853 843.45 567.913 842.32 567.943C841.192 568.003 840.064 567.993 838.925 567.983H838.924H838.92C841.16 568.423 843.45 568.553 845.74 568.513C848.03 568.493 850.32 568.213 852.57 567.673C854.8 567.103 857.01 566.283 858.93 564.943ZM801.81 293.823L800.19 292.753L802.34 289.462L797.2 286.102L799.52 282.562L802.98 284.823L814.74 266.842L816.85 263.612L813.39 261.352L815.71 257.812L820.85 261.172L823 257.883L824.62 258.943L822.47 262.232L825.16 263.992L825.44 264.182L825.61 263.922L827.6 260.883L829.22 261.953L828.07 263.722L827.07 265.242L830.59 267.542C835.79 270.953 837.14 275.992 834.27 280.362C832.37 283.282 829.6 284.333 826.93 284.133C829.22 287.182 829.39 290.922 827.21 294.253C824 299.172 818.2 299.842 811.7 295.592L808.56 293.532L806.41 296.823L804.78 295.763L806.94 292.472L803.96 290.532L801.81 293.823ZM827.19 270.372L821.1 266.393L815.7 274.643L822.25 278.922C825.29 280.912 827.95 280.573 829.75 277.823C831.58 275.032 830.64 272.633 827.19 270.372ZM820.18 282.633L813.39 278.182L807.23 287.602L813.98 292.023C817.89 294.583 820.9 294.352 823.03 291.102C825.24 287.722 823.47 284.782 820.18 282.633ZM788.83 584.363C786.92 585.493 784.81 586.243 782.65 586.773C780.49 587.313 778.26 587.613 776.02 587.823C774.9 587.923 773.77 587.983 772.64 588.013C771.512 588.073 770.384 588.063 769.246 588.053H769.244H769.24C771.48 588.493 773.77 588.623 776.06 588.583C778.35 588.563 780.64 588.283 782.89 587.743C785.12 587.173 787.33 586.353 789.25 585.013C790.2 584.343 791.1 583.593 791.85 582.713C792.57 581.813 793.2 580.833 793.62 579.773C792.4 581.693 790.75 583.263 788.83 584.363ZM718.31 511.584C720.06 511.644 721.82 511.584 723.55 511.414C725.29 511.274 727.02 510.974 728.7 510.544C732.08 509.684 735.29 508.154 738.04 505.844C736.88 507.214 735.48 508.374 733.97 509.384C732.44 510.374 730.76 511.104 729.03 511.674C725.56 512.824 721.89 513.164 718.28 513.094C714.66 512.994 711.07 512.474 707.58 511.624C704.09 510.784 700.67 509.624 697.44 508.094C700.87 509.074 704.34 509.834 707.82 510.474C711.3 511.074 714.81 511.514 718.31 511.584ZM611.687 566.716C610.567 567.906 609.337 568.956 608.017 569.886C605.347 571.686 602.357 572.986 599.227 573.856C596.117 574.776 592.867 575.276 589.607 575.606C586.347 575.896 583.047 576.046 579.727 575.956C582.987 576.626 586.337 576.876 589.687 576.776C593.027 576.676 596.387 576.236 599.647 575.306C602.887 574.386 606.037 572.946 608.717 570.826C610.047 569.766 611.237 568.536 612.257 567.186C613.217 565.796 614.027 564.306 614.577 562.736C613.717 564.166 612.797 565.526 611.687 566.716ZM650.095 482.973C652.255 482.443 654.375 481.683 656.285 480.563C658.205 479.463 659.845 477.893 661.075 475.973C660.645 477.023 660.025 478.003 659.295 478.913C658.545 479.793 657.645 480.543 656.695 481.213C654.785 482.553 652.565 483.373 650.335 483.943C648.095 484.473 645.795 484.753 643.505 484.783C641.215 484.813 638.925 484.683 636.685 484.243C637.825 484.263 638.955 484.263 640.085 484.213C641.215 484.183 642.345 484.123 643.465 484.023C645.705 483.813 647.935 483.513 650.095 482.973ZM594.19 163.672H595.24V161.542H597.17V163.672H598.22V161.542H600.25C604.46 161.542 606.89 159.512 606.89 156.332C606.89 154.172 605.7 152.522 603.76 151.822C605.03 151.122 605.97 149.832 605.97 147.942C605.97 145.102 603.87 143.212 600.49 143.212H598.22V141.082H597.17V143.212H595.24V141.082H594.19V143.212H590.86V145.512H593.1V159.242H590.86V161.542H594.19V163.672ZM595.85 145.512H599.79C602.03 145.512 603.17 146.322 603.17 148.132C603.17 149.912 602.06 150.852 600.09 150.852H595.85V145.512ZM595.85 153.142H600.25C602.38 153.142 604.06 153.952 604.06 156.142C604.06 158.242 602.76 159.242 600.22 159.242H595.85V153.142ZM522.13 538.484C523.88 538.544 525.63 538.484 527.37 538.315C529.11 538.174 530.83 537.885 532.52 537.445C535.89 536.585 539.11 535.055 541.85 532.745C540.7 534.115 539.29 535.275 537.79 536.285C536.26 537.275 534.57 538.005 532.85 538.575C529.38 539.724 525.7 540.065 522.09 539.995C518.47 539.895 514.89 539.375 511.39 538.525C507.9 537.685 504.49 536.525 501.25 534.995C504.69 535.974 508.16 536.734 511.63 537.375C515.12 537.974 518.62 538.414 522.13 538.484ZM554.59 163.672H555.64V161.542H557.57V163.672H558.62V161.542H560.65C564.86 161.542 567.29 159.512 567.29 156.332C567.29 154.172 566.1 152.522 564.16 151.822C565.43 151.122 566.37 149.832 566.37 147.942C566.37 145.102 564.27 143.212 560.9 143.212H558.62V141.082H557.57V143.212H555.64V141.082H554.59V143.212H551.26V145.512H553.5V159.242H551.26V161.542H554.59V163.672ZM556.26 145.512H560.19C562.43 145.512 563.57 146.322 563.57 148.132C563.57 149.912 562.46 150.852 560.49 150.852H556.26V145.512ZM556.26 153.142H560.65C562.79 153.142 564.46 153.952 564.46 156.142C564.46 158.242 563.16 159.242 560.63 159.242H556.26V153.142ZM540.1 494.77C542.28 495.05 544.48 495.14 546.65 494.86C547.73 494.73 548.8 494.48 549.82 494.08C550.85 493.71 551.82 493.17 552.74 492.52C551.17 494.13 549 495.16 546.77 495.58C544.53 496.05 542.22 495.98 539.98 495.72C537.74 495.41 535.53 494.89 533.41 494.15C531.28 493.42 529.21 492.55 527.26 491.44C527.466 491.512 527.672 491.585 527.877 491.657C528.726 491.956 529.568 492.253 530.43 492.51C531.49 492.85 532.55 493.17 533.62 493.45C535.76 494.01 537.92 494.5 540.1 494.77ZM403.55 565.392C400.41 566.142 397.15 566.312 393.92 566.032C390.69 565.802 387.47 565.132 384.31 564.302C381.14 563.432 378 562.412 374.92 561.162C377.74 562.932 380.79 564.342 383.96 565.422C387.13 566.502 390.43 567.262 393.8 567.542C397.17 567.802 400.63 567.562 403.88 566.522C405.49 565.992 407.04 565.252 408.47 564.342C409.85 563.372 411.13 562.272 412.2 560.992C410.89 562.022 409.56 562.982 408.09 563.702C406.63 564.432 405.11 564.982 403.55 565.392ZM352.05 524.803L350.18 524.623L350.55 520.833L344.64 520.253L345.03 516.183L349.02 516.563L350.87 497.613L351.4 492.153L347.42 491.763L347.82 487.683L353.73 488.263L354.1 484.473L355.97 484.653L355.6 488.443L359.03 488.773L359.4 484.983L361.26 485.173L360.9 488.963L364.94 489.353C366.4 489.493 367.71 489.823 368.85 490.313C372.37 491.833 374.23 494.893 373.86 498.703C373.53 502.063 371.63 504.203 369.25 505.223C372.59 506.813 374.41 509.943 374.04 513.783C373.48 519.443 368.81 522.623 361.33 521.883L357.71 521.533L357.34 525.323L355.47 525.143L355.84 521.343L352.42 521.013L352.05 524.803ZM356.29 492.623L356.09 494.723L355.37 502.123L362.9 502.863C366.4 503.203 368.53 501.713 368.84 498.553C369.15 495.333 367.28 493.703 363.3 493.313L360.18 493.003L356.29 492.623ZM362.79 506.963L354.97 506.203L353.91 517.043L361.68 517.803C366.19 518.243 368.67 516.693 369.03 512.953C369.41 509.063 366.58 507.333 362.79 506.963ZM331.14 261.134C334.72 257.604 336.65 252.394 334.89 246.094C332.23 236.644 323.44 232.304 312.19 235.464L304.58 237.594L302.59 230.484L299.08 231.464L301.08 238.584L294.65 240.384L292.66 233.274L289.15 234.254L291.15 241.364L280.04 244.484L282.19 252.134L289.66 250.044L302.52 295.874L295.05 297.964L297.2 305.624L308.3 302.514L310.29 309.614L313.8 308.634L311.81 301.524L318.24 299.724L320.23 306.834L323.74 305.844L321.74 298.734L328.53 296.834C342.58 292.884 348.78 283.864 345.8 273.234C343.78 266.034 338.28 261.654 331.14 261.134ZM298.85 247.464L311.99 243.774C319.47 241.674 324.01 243.314 325.7 249.354C327.37 255.294 324.56 259.484 317.99 261.324L303.85 265.294L298.85 247.464ZM326.29 289.204L311.71 293.294L306 272.944L320.67 268.824C327.79 266.834 334.13 267.964 336.17 275.264C338.14 282.284 334.76 286.824 326.29 289.204ZM631.817 532.255C633.977 531.725 636.087 530.975 637.997 529.855C639.917 528.745 641.567 527.185 642.787 525.255C642.367 526.315 641.737 527.295 641.007 528.195C640.257 529.085 639.357 529.835 638.407 530.505C636.497 531.845 634.287 532.655 632.057 533.225C629.807 533.765 627.517 534.045 625.227 534.075C622.937 534.105 620.647 533.975 618.407 533.535H618.412H618.413C619.551 533.545 620.679 533.555 621.807 533.495C622.937 533.465 624.067 533.415 625.187 533.305C627.427 533.095 629.647 532.805 631.817 532.255ZM333.57 592.824C331.66 593.954 329.55 594.704 327.391 595.234C325.22 595.774 323 596.074 320.76 596.284C319.641 596.384 318.51 596.444 317.38 596.474C316.251 596.534 315.121 596.524 313.982 596.514H313.98C316.22 596.954 318.51 597.084 320.8 597.044C323.091 597.024 325.38 596.744 327.63 596.204C329.86 595.634 332.07 594.814 333.98 593.474C334.93 592.804 335.831 592.054 336.581 591.174C337.281 590.314 337.88 589.384 338.3 588.374C338.32 588.324 338.341 588.284 338.36 588.234C338.346 588.259 338.328 588.284 338.311 588.309L338.31 588.309C338.3 588.324 338.29 588.339 338.28 588.354C338.273 588.364 338.267 588.374 338.26 588.384C337.05 590.234 335.44 591.754 333.57 592.824ZM241.98 595.262C244.14 594.742 246.26 593.982 248.17 592.862C250.09 591.752 251.73 590.192 252.95 588.262C252.53 589.322 251.9 590.302 251.18 591.202C250.43 592.092 249.53 592.842 248.58 593.512C246.67 594.852 244.45 595.672 242.22 596.242C239.97 596.772 237.68 597.052 235.39 597.082C233.1 597.112 230.81 596.982 228.57 596.542H228.575C229.714 596.552 230.842 596.562 231.97 596.512C233.1 596.482 234.23 596.422 235.35 596.312C237.59 596.112 239.82 595.812 241.98 595.262Z" fill="#E8B103"/>
<path fill-rule="evenodd" clip-rule="evenodd" d="M558.2 170.133C566.56 170.133 573.61 164.483 575.72 156.773C576.15 155.243 576.37 153.633 576.37 151.963C576.37 141.933 568.23 133.793 558.2 133.793C553.06 133.793 548.41 135.933 545.11 139.363C541.96 142.633 540.03 147.073 540.03 151.963C540.03 156.863 541.96 161.303 545.11 164.563C548.41 168.003 553.06 170.133 558.2 170.133ZM545.11 141.933C548.12 138.003 552.86 135.473 558.2 135.473C567.31 135.473 574.7 142.853 574.7 151.963C574.7 161.083 567.31 168.463 558.2 168.463C552.86 168.463 548.12 165.933 545.11 162.003C542.97 159.223 541.7 155.743 541.7 151.963C541.7 148.193 542.97 144.713 545.11 141.933ZM610.88 164.563C607.58 168.003 602.93 170.133 597.79 170.133C589.44 170.133 582.4 164.503 580.28 156.813C579.85 155.273 579.62 153.643 579.62 151.963C579.62 141.933 587.76 133.793 597.79 133.793C602.93 133.793 607.58 135.933 610.88 139.363C614.03 142.633 615.97 147.073 615.97 151.963C615.97 156.863 614.03 161.303 610.88 164.563ZM610.88 141.933C607.88 138.003 603.13 135.473 597.79 135.473C588.68 135.473 581.3 142.853 581.3 151.963C581.3 161.083 588.68 168.463 597.79 168.463C603.13 168.463 607.88 165.933 610.88 162.003C613.02 159.223 614.29 155.743 614.29 151.963C614.29 148.193 613.02 144.713 610.88 141.933ZM597.79 167.934C602.2 167.934 606.2 166.144 609.09 163.254C609.75 162.594 610.35 161.884 610.88 161.124C612.7 158.534 613.76 155.374 613.76 151.964C613.76 148.554 612.7 145.394 610.88 142.804C610.35 142.044 609.75 141.334 609.09 140.674C606.2 137.784 602.2 136.004 597.79 136.004C593.38 136.004 589.39 137.784 586.5 140.674C583.61 143.564 581.83 147.554 581.83 151.964C581.83 156.374 583.61 160.364 586.5 163.254C589.39 166.144 593.38 167.934 597.79 167.934ZM590.86 159.244H593.1V145.514H590.86V143.214H594.19V141.084H595.24V143.214H597.17V141.084H598.22V143.214H600.49C603.87 143.214 605.97 145.104 605.97 147.944C605.97 149.834 605.03 151.124 603.76 151.824C605.7 152.524 606.89 154.174 606.89 156.334C606.89 159.514 604.46 161.544 600.25 161.544H598.22V163.674H597.17V161.544H595.24V163.674H594.19V161.544H590.86V159.244ZM603.17 148.132C603.17 146.322 602.03 145.512 599.79 145.512H595.85V150.852H600.09C602.06 150.852 603.17 149.912 603.17 148.132ZM604.06 156.145C604.06 153.955 602.38 153.145 600.25 153.145H595.85V159.244H600.22C602.76 159.244 604.06 158.244 604.06 156.145ZM799.22 306.384C814.72 316.524 835.5 312.184 845.64 296.684C851.1 288.334 852.36 278.444 849.92 269.514C847.85 261.874 843.08 254.944 835.93 250.274C820.44 240.134 799.66 244.474 789.52 259.974C785.11 266.714 783.44 274.444 784.24 281.864C785.27 291.524 790.46 300.654 799.22 306.384ZM791.91 261.544C797.8 252.544 807.61 247.654 817.61 247.654C823.36 247.654 829.19 249.274 834.37 252.664C840.22 256.484 844.33 261.974 846.49 268.094C847.65 271.384 848.25 274.854 848.25 278.354C848.25 284.114 846.63 289.944 843.24 295.124C837.36 304.114 827.55 309.004 817.55 309.004C811.79 309.004 805.97 307.384 800.79 303.994C792.38 298.504 787.56 289.574 786.98 280.274C786.93 279.624 786.91 278.964 786.91 278.304C786.91 272.544 788.53 266.714 791.91 261.544ZM801.57 302.794C806.51 306.024 812.06 307.564 817.55 307.564C827.09 307.564 836.43 302.914 842.05 294.334C845.28 289.394 846.82 283.844 846.82 278.354C846.82 274.604 846.1 270.884 844.7 267.404C842.55 262.044 838.78 257.264 833.58 253.864C828.64 250.634 823.1 249.094 817.61 249.094C808.07 249.094 798.72 253.744 793.11 262.324C789.88 267.264 788.34 272.814 788.34 278.304C788.34 278.704 788.35 279.094 788.36 279.494C788.74 288.614 793.36 297.414 801.57 302.794ZM799.52 282.564L802.98 284.824L814.74 266.844L816.85 263.614L813.39 261.354L815.71 257.814L820.85 261.174L823 257.884L824.62 258.944L822.47 262.234L825.16 263.994L825.44 264.184L825.61 263.924L827.6 260.884L829.22 261.954L828.07 263.724L827.07 265.244L830.59 267.544C835.79 270.954 837.14 275.994 834.27 280.364C832.37 283.284 829.6 284.334 826.93 284.134C829.22 287.184 829.39 290.924 827.21 294.254C824 299.174 818.2 299.844 811.7 295.594L808.56 293.534L806.41 296.824L804.78 295.764L806.94 292.474L803.96 290.534L801.81 293.824L800.19 292.754L802.34 289.464L797.2 286.104L799.52 282.564ZM829.75 277.825C831.58 275.034 830.64 272.635 827.19 270.375L821.1 266.395L815.7 274.645L822.25 278.924C825.29 280.914 827.95 280.575 829.75 277.825ZM820.18 282.634C823.47 284.784 825.24 287.724 823.031 291.104C820.901 294.354 817.891 294.584 813.98 292.024L807.23 287.604L813.391 278.184L820.18 282.634ZM711.84 313.011C708.69 313.011 705.52 311.951 702.89 309.791C699.53 307.011 697.79 302.991 697.79 298.931C697.79 295.781 698.84 292.611 701.01 289.981C703.79 286.621 707.81 284.871 711.86 284.871C715.02 284.871 718.19 285.931 720.81 288.101C721.45 288.631 722.04 289.201 722.55 289.821C724.78 292.411 725.92 295.671 725.92 298.951C725.92 302.111 724.87 305.281 722.7 307.901C720.95 310.021 718.71 311.501 716.28 312.291C714.84 312.771 713.35 313.011 711.84 313.011ZM701.58 311.384C705.62 314.713 710.8 315.754 715.53 314.663C718.85 313.884 721.95 312.054 724.29 309.223C729.67 302.713 729.08 293.244 723.16 287.434C722.83 287.114 722.49 286.804 722.13 286.504C715.26 280.834 705.09 281.804 699.41 288.674C693.74 295.544 694.71 305.713 701.58 311.384ZM700.47 289.544C703.39 286.014 707.61 284.184 711.86 284.184C715.17 284.184 718.5 285.294 721.25 287.564C721.79 288.014 722.3 288.494 722.76 289.004C725.3 291.783 726.61 295.364 726.61 298.954C726.61 302.264 725.5 305.593 723.23 308.343C721.28 310.694 718.76 312.294 716.03 313.093C714.67 313.504 713.26 313.704 711.84 313.704C708.54 313.704 705.21 312.593 702.46 310.324C698.92 307.403 697.09 303.184 697.1 298.934C697.1 295.634 698.2 292.294 700.47 289.544ZM560.19 145.512C562.43 145.512 563.57 146.322 563.57 148.132C563.57 149.912 562.46 150.852 560.49 150.852H556.26V145.512H560.19ZM560.65 153.145C562.79 153.145 564.46 153.955 564.46 156.145C564.46 158.244 563.16 159.244 560.63 159.244H556.26V153.145H560.65ZM558.201 167.934C553.79 167.934 549.8 166.144 546.91 163.254C546.25 162.594 545.641 161.874 545.11 161.104C543.29 158.514 542.23 155.364 542.23 151.964C542.23 148.564 543.29 145.414 545.11 142.824C545.641 142.054 546.25 141.334 546.91 140.674C549.8 137.784 553.79 136.004 558.201 136.004C562.61 136.004 566.6 137.784 569.49 140.674C572.38 143.564 574.17 147.554 574.17 151.964C574.17 156.374 572.38 160.364 569.49 163.254C566.6 166.144 562.61 167.934 558.201 167.934ZM553.5 159.244H551.26V161.544H554.591V163.674H555.641V161.544H557.57V163.674H558.62V161.544H560.651C564.86 161.544 567.29 159.514 567.29 156.334C567.29 154.174 566.1 152.524 564.16 151.824C565.43 151.124 566.37 149.834 566.37 147.944C566.37 145.104 564.271 143.214 560.901 143.214H558.62V141.084H557.57V143.214H555.641V141.084H554.591V143.214H551.26V145.514H553.5V159.244ZM358.66 532.745C357.74 532.745 356.81 532.705 355.88 532.615C344.51 531.505 335.36 523.805 331.87 513.664C330.86 510.775 330.32 507.674 330.32 504.484C330.32 503.555 330.37 502.635 330.46 501.695C331.89 487.075 344.2 476.145 358.59 476.145C359.51 476.145 360.44 476.185 361.38 476.275C369.79 477.094 376.98 481.525 381.57 487.885C384.96 492.565 386.93 498.305 386.93 504.414C386.93 505.335 386.88 506.265 386.79 507.195C385.37 521.815 373.05 532.745 358.66 532.745ZM349.02 516.565L345.03 516.185L344.64 520.255L350.55 520.835L350.18 524.625L352.05 524.805L352.42 521.015L355.84 521.344L355.47 525.145L357.34 525.325L357.71 521.534L361.33 521.885C368.81 522.625 373.48 519.445 374.04 513.784C374.41 509.945 372.59 506.815 369.25 505.224C371.63 504.205 373.53 502.065 373.86 498.705C374.23 494.895 372.37 491.835 368.85 490.315C367.71 489.825 366.4 489.495 364.94 489.354L360.9 488.964L361.26 485.174L359.4 484.984L359.03 488.775L355.6 488.445L355.97 484.654L354.1 484.474L353.73 488.265L347.82 487.685L347.42 491.765L351.4 492.154L350.87 497.615L349.02 516.565ZM250.75 284.202C260.14 317.682 294.9 337.212 328.38 327.812C361.87 318.422 381.4 283.662 372 250.182C362.61 216.692 327.85 197.162 294.37 206.562C260.88 215.952 241.35 250.712 250.75 284.202ZM295.82 211.732C301.02 210.272 306.25 209.572 311.41 209.572C336.58 209.572 359.7 226.202 366.83 251.632C368.29 256.832 368.99 262.062 368.99 267.212C368.99 292.392 352.36 315.512 326.93 322.642C321.73 324.102 316.5 324.802 311.34 324.802C286.17 324.802 263.05 308.172 255.92 282.752C254.46 277.542 253.76 272.312 253.76 267.162C253.76 241.982 270.39 218.862 295.82 211.732ZM362.79 506.963C366.58 507.333 369.41 509.063 369.03 512.953C368.67 516.693 366.19 518.243 361.68 517.803L353.91 517.043L354.97 506.203L362.79 506.963ZM368.84 498.551C369.15 495.331 367.28 493.701 363.3 493.311L360.18 493.001L356.29 492.621L356.09 494.721L355.37 502.121L362.9 502.861C366.4 503.201 368.53 501.711 368.84 498.551ZM326.21 320.052C321.24 321.442 316.25 322.112 311.34 322.112C287.35 322.112 265.31 306.252 258.51 282.022C257.12 277.062 256.45 272.062 256.45 267.162C256.45 243.162 272.31 221.122 296.54 214.322C301.51 212.932 306.5 212.262 311.41 212.262C335.4 212.272 357.44 228.122 364.24 252.352C365.63 257.322 366.3 262.312 366.3 267.212C366.3 291.212 350.44 313.252 326.21 320.052ZM292.66 233.272L289.15 234.252L291.15 241.362L280.04 244.482L282.19 252.132L289.66 250.042L302.52 295.872L295.05 297.962L297.2 305.622L308.3 302.512L310.29 309.612L313.8 308.632L311.81 301.522L318.24 299.722L320.23 306.832L323.74 305.842L321.74 298.732L328.53 296.832C342.58 292.882 348.78 283.862 345.8 273.232C343.78 266.032 338.28 261.652 331.14 261.132C334.72 257.602 336.65 252.392 334.89 246.092C332.23 236.642 323.44 232.302 312.19 235.462L304.58 237.592L302.59 230.482L299.08 231.462L301.08 238.582L294.65 240.382L292.66 233.272ZM320.67 268.824L306 272.944L311.71 293.294L326.29 289.204C334.76 286.824 338.14 282.284 336.17 275.264C334.13 267.964 327.79 266.834 320.67 268.824ZM325.7 249.353C327.37 255.293 324.56 259.483 317.99 261.323L303.85 265.293L298.85 247.463L311.99 243.773C319.47 241.673 324.01 243.313 325.7 249.353Z" fill="#FFE800"/>
</svg>